<?xml version="1.0" encoding="UTF-8" standalone="no"?>
<!-- Created with Inkscape (http://www.inkscape.org/) -->

<svg
   xmlns:dc="http://purl.org/dc/elements/1.1/"
   xmlns:cc="http://creativecommons.org/ns#"
   xmlns:rdf="http://www.w3.org/1999/02/22-rdf-syntax-ns#"
   xmlns:svg="http://www.w3.org/2000/svg"
   xmlns="http://www.w3.org/2000/svg"
   xmlns:xlink="http://www.w3.org/1999/xlink"
   xmlns:sodipodi="http://sodipodi.sourceforge.net/DTD/sodipodi-0.dtd"
   xmlns:inkscape="http://www.inkscape.org/namespaces/inkscape"
   width="185.44922"
   height="78.408737"
   viewBox="0 0 185.44922 78.408739"
   id="svg2"
   version="1.1"
   inkscape:version="0.91 r13725"
   sodipodi:docname="MyCorpLogo.svg">
  <defs
     id="defs4">
    <linearGradient
       gradientTransform="translate(106.37596,-437.2375)"
       id="linearGradient3224"
       y2="707.52002"
       gradientUnits="userSpaceOnUse"
       x2="226.53"
       y1="707.52002"
       x1="261.12"
       inkscape:collect="always">
      <stop
         id="stop3220"
         style="stop-color:#000000"
         offset="0" />
      <stop
         id="stop3222"
         style="stop-color:#000000;stop-opacity:0"
         offset="1" />
    </linearGradient>
    <filter
       id="filter3413"
       inkscape:collect="always"
       style="color-interpolation-filters:sRGB">
      <feGaussianBlur
         id="feGaussianBlur3415"
         stdDeviation="0.23808354"
         inkscape:collect="always" />
    </filter>
    <filter
       id="filter3397"
       height="1.6348"
       width="1.0842"
       y="-0.31740999"
       x="-0.042107999"
       inkscape:collect="always"
       style="color-interpolation-filters:sRGB">
      <feGaussianBlur
         id="feGaussianBlur3399"
         stdDeviation="0.70496809"
         inkscape:collect="always" />
    </filter>
    <filter
       id="filter3393"
       height="1.6348"
       width="1.0827"
       y="-0.31740999"
       x="-0.041329"
       inkscape:collect="always"
       style="color-interpolation-filters:sRGB">
      <feGaussianBlur
         id="feGaussianBlur3395"
         stdDeviation="0.70496809"
         inkscape:collect="always" />
    </filter>
    <filter
       id="filter3389"
       height="1.6348"
       width="1.0827"
       y="-0.31740999"
       x="-0.041329"
       inkscape:collect="always"
       style="color-interpolation-filters:sRGB">
      <feGaussianBlur
         id="feGaussianBlur3391"
         stdDeviation="0.70496809"
         inkscape:collect="always" />
    </filter>
    <filter
       id="filter3385"
       height="1.6348"
       width="1.0827"
       y="-0.31740999"
       x="-0.041329"
       inkscape:collect="always"
       style="color-interpolation-filters:sRGB">
      <feGaussianBlur
         id="feGaussianBlur3387"
         stdDeviation="0.70496809"
         inkscape:collect="always" />
    </filter>
    <filter
       id="filter3525"
       height="1.2579"
       width="1.0935"
       y="-0.12893"
       x="-0.046767998"
       inkscape:collect="always"
       style="color-interpolation-filters:sRGB">
      <feGaussianBlur
         id="feGaussianBlur3527"
         stdDeviation="0.67911001"
         inkscape:collect="always" />
    </filter>
    <filter
       id="filter3529"
       height="1.4453"
       width="1.1435"
       y="-0.22263999"
       x="-0.071741998"
       inkscape:collect="always"
       style="color-interpolation-filters:sRGB">
      <feGaussianBlur
         id="feGaussianBlur3531"
         stdDeviation="0.67911001"
         inkscape:collect="always" />
    </filter>
    <linearGradient
       gradientTransform="translate(106.37596,-437.2375)"
       id="linearGradient3232"
       y2="693.38"
       gradientUnits="userSpaceOnUse"
       x2="224.25999"
       y1="693.38"
       x1="262.38"
       inkscape:collect="always">
      <stop
         id="stop3228"
         style="stop-color:#000000"
         offset="0" />
      <stop
         id="stop3230"
         style="stop-color:#000000;stop-opacity:0"
         offset="1" />
    </linearGradient>
    <filter
       id="filter3441"
       height="1.3782001"
       width="1.0625"
       y="-0.1891"
       x="-0.031265002"
       inkscape:collect="always"
       style="color-interpolation-filters:sRGB">
      <feGaussianBlur
         id="feGaussianBlur3443"
         stdDeviation="0.4966367"
         inkscape:collect="always" />
    </filter>
    <filter
       id="filter3665"
       inkscape:collect="always"
       style="color-interpolation-filters:sRGB">
      <feGaussianBlur
         id="feGaussianBlur3667"
         stdDeviation="1.225073"
         inkscape:collect="always" />
    </filter>
    <filter
       id="filter3645"
       height="1.2176"
       width="1.3094"
       y="-0.10881"
       x="-0.1547"
       inkscape:collect="always"
       style="color-interpolation-filters:sRGB">
      <feGaussianBlur
         id="feGaussianBlur3647"
         stdDeviation="1.6597493"
         inkscape:collect="always" />
    </filter>
    <filter
       id="filter3641"
       height="1.6191"
       width="1.8097"
       y="-0.30952999"
       x="-0.40487"
       inkscape:collect="always"
       style="color-interpolation-filters:sRGB">
      <feGaussianBlur
         id="feGaussianBlur3643"
         stdDeviation="1.6597493"
         inkscape:collect="always" />
    </filter>
    <filter
       id="filter3637"
       height="2.053"
       width="1.8311"
       y="-0.52648997"
       x="-0.41553"
       inkscape:collect="always"
       style="color-interpolation-filters:sRGB">
      <feGaussianBlur
         id="feGaussianBlur3639"
         stdDeviation="1.6597493"
         inkscape:collect="always" />
    </filter>
    <linearGradient
       inkscape:collect="always"
       xlink:href="#linearGradient3224"
       id="linearGradient3890"
       gradientUnits="userSpaceOnUse"
       gradientTransform="translate(106.37596,-437.2375)"
       x1="261.12"
       y1="707.52002"
       x2="226.53"
       y2="707.52002" />
    <linearGradient
       inkscape:collect="always"
       xlink:href="#linearGradient3232"
       id="linearGradient3892"
       gradientUnits="userSpaceOnUse"
       gradientTransform="translate(106.37596,-437.2375)"
       x1="262.38"
       y1="693.38"
       x2="224.25999"
       y2="693.38" />
  </defs>
  <sodipodi:namedview
     id="base"
     pagecolor="#ffffff"
     bordercolor="#666666"
     borderopacity="1.0"
     inkscape:pageopacity="0.0"
     inkscape:pageshadow="2"
     inkscape:zoom="1.979899"
     inkscape:cx="-57.546386"
     inkscape:cy="55.842661"
     inkscape:document-units="px"
     inkscape:current-layer="layer1"
     showgrid="false"
     showguides="true"
     fit-margin-top="0"
     fit-margin-left="0"
     fit-margin-right="0"
     fit-margin-bottom="0"
     inkscape:window-width="1858"
     inkscape:window-height="1057"
     inkscape:window-x="54"
     inkscape:window-y="-8"
     inkscape:window-maximized="1" />
  <metadata
     id="metadata7">
    <rdf:RDF>
      <cc:Work
         rdf:about="">
        <dc:format>image/svg+xml</dc:format>
        <dc:type
           rdf:resource="http://purl.org/dc/dcmitype/StillImage" />
        <dc:title></dc:title>
      </cc:Work>
    </rdf:RDF>
  </metadata>
  <g
     inkscape:label="Layer 1"
     inkscape:groupmode="layer"
     id="layer1"
     transform="translate(-328.0679,-406.84248)">
    <g
       id="g3411">
      <text
         sodipodi:linespacing="125%"
         id="text4136"
         y="444.96536"
         x="326.97546"
         style="font-style:normal;font-variant:normal;font-weight:normal;font-stretch:normal;font-size:29.55895424px;line-height:125%;font-family:TakaoPGothic;-inkscape-font-specification:TakaoPGothic;letter-spacing:0px;word-spacing:0px;fill:#aa7304;fill-opacity:1;stroke:none"
         xml:space="preserve"><tspan
           style="font-style:normal;font-variant:normal;font-weight:bold;font-stretch:normal;font-size:40px;font-family:'Berlin Sans FB Demi';-inkscape-font-specification:'Berlin Sans FB Demi Bold';fill:#aa7304;fill-opacity:1"
           y="444.96536"
           x="326.97546"
           id="tspan4138"
           sodipodi:role="line">My Corp</tspan></text>
      <text
         sodipodi:linespacing="125%"
         id="text4864"
         y="248.62808"
         x="328.15921"
         style="font-style:normal;font-weight:normal;font-size:29.55895424px;line-height:125%;font-family:sans-serif;letter-spacing:0px;word-spacing:0px;fill:#000000;fill-opacity:1;stroke:none"
         xml:space="preserve"><tspan
           y="248.62808"
           x="328.15921"
           id="tspan4866"
           sodipodi:role="line" /></text>
      <g
         transform="translate(8.5862966,-5.0507627)"
         id="g3397">
        <path
           inkscape:connector-curvature="0"
           id="path2412"
           sodipodi:nodetypes="ccccc"
           style="fill:url(#linearGradient3890);fill-rule:evenodd;stroke:#a1a1a1;stroke-width:1px;filter:url(#filter3413)"
           d="m 333.40596,258.7925 0.25,22.98 33.34,0 0,-22.98 -33.59,0 z"
           transform="matrix(0.1886872,0,0,0.21314736,424.01469,383.09075)" />
        <path
           inkscape:connector-curvature="0"
           id="path2414"
           style="fill:#343434;fill-rule:evenodd;stroke:#676767;stroke-width:2.29999995;filter:url(#filter3397)"
           d="m 331.13596,263.8425 37.88,-3.03"
           transform="matrix(0.1886872,0,0,0.21314736,424.01469,383.09075)" />
        <path
           inkscape:connector-curvature="0"
           id="path3199"
           sodipodi:nodetypes="cc"
           style="fill:none;stroke:#676767;stroke-width:2.29999995;filter:url(#filter3393)"
           d="m 330.88596,269.4025 38.63,-3.03"
           transform="matrix(0.1886872,0,0,0.21314736,424.01469,383.09075)" />
        <path
           inkscape:connector-curvature="0"
           id="path3201"
           sodipodi:nodetypes="cc"
           style="fill:none;stroke:#676767;stroke-width:2.29999995;filter:url(#filter3389)"
           d="m 331.00596,275.2125 38.64,-3.03"
           transform="matrix(0.1886872,0,0,0.21314736,424.01469,383.09075)" />
        <path
           inkscape:connector-curvature="0"
           id="path3203"
           sodipodi:nodetypes="cc"
           style="fill:none;stroke:#676767;stroke-width:2.29999995;filter:url(#filter3385)"
           d="m 331.00596,280.5125 38.64,-3.03"
           transform="matrix(0.1886872,0,0,0.21314736,424.01469,383.09075)" />
        <path
           inkscape:connector-curvature="0"
           id="path3205"
           style="fill:#929292;fill-rule:evenodd;filter:url(#filter3525)"
           d="m 333.40596,282.2825 c 0,0 10.61,12.88 17.43,12.37 6.82,-0.5 17.42,-12.63 17.42,-12.63 l -34.85,0.26 z"
           transform="matrix(0.1886872,0,0,0.21314736,424.01469,383.09075)" />
        <path
           inkscape:connector-curvature="0"
           id="path3207"
           sodipodi:nodetypes="ccsc"
           style="fill:#070707;fill-rule:evenodd;stroke:#000000;stroke-width:1px;filter:url(#filter3529)"
           d="m 340.04596,288.8425 21.72,-0.75 c 0,0 -6.29,8.28 -10.06,8.09 -4.13,-0.2 -11.66,-7.08 -11.66,-7.34 z"
           transform="matrix(0.1886872,0,0,0.21314736,424.01469,383.09075)" />
        <path
           inkscape:connector-curvature="0"
           id="path2410"
           style="fill:url(#linearGradient3892);fill-rule:evenodd;stroke:#858585;stroke-width:1px;filter:url(#filter3441)"
           d="m 331.38596,253.4925 36.87,0 0,5.3 -37.12,0 0.25,-5.3 z"
           transform="matrix(0.1886872,0,0,0.21314736,424.01469,383.09075)" />
        <path
           inkscape:connector-curvature="0"
           id="path2402"
           sodipodi:nodetypes="cscsssssssssssscscc"
           style="fill:#e8e8e8;fill-rule:evenodd;stroke:#d8d8d8;stroke-width:2.29999995;filter:url(#filter3665)"
           d="m 330.37596,253.7425 c -0.25,-1.01 -4.54,-4.04 -5.05,-5.3 -0.5,-1.27 -0.76,-11.37 -0.76,-11.37 0,0 -0.5,-3.79 -1.26,-6.56 -0.76,-2.78 -14.48,-27.31 -16.16,-30.31 -1.85,-3.28 -3.18,-16.83 -0.76,-25 0.82,-2.77 2.59,-8.13 5.33,-11.85 2.75,-3.76 6.61,-7.25 10.33,-9.36 9.53,-5.42 20.96,-8.08 27.02,-8.08 8.33,0 22.48,5.3 26.77,9.09 4.29,3.79 10.1,7.32 13.38,15.66 2.23,5.64 5.31,13.63 4.04,19.95 -1.26,6.31 -3.78,14.39 -6.06,17.67 -2.27,3.29 -7.57,11.87 -9.85,15.91 -2.27,4.04 -3.78,8.34 -4.29,11.37 -0.5,3.03 0.25,12.37 0.25,12.37 0,0 -0.5,2.27 -1.76,3.28 -1.27,1.01 -2.78,1.77 -2.78,1.77 l -38.39,0.76 z"
           transform="matrix(0.1886872,0,0,0.21314736,424.01469,383.09075)" />
        <path
           inkscape:connector-curvature="0"
           id="path2404"
           style="fill:#fefefe;fill-rule:evenodd;stroke:#fefefe;stroke-width:1px;filter:url(#filter3645)"
           d="m 312.44596,191.1125 14.9,-4.29 c 0,0 0.25,-7.83 2.02,-10.86 1.77,-3.03 6.82,-8.08 6.82,-8.08 l -4.29,-12.38 c 0,0 -12.38,5.81 -16.42,14.65 -4.04,8.84 -4.04,20.46 -4.04,20.46 l 1.01,0.5 z"
           transform="matrix(0.1886872,0,0,0.21314736,424.01469,383.09075)" />
        <path
           inkscape:connector-curvature="0"
           id="path2406"
           style="fill:#fefefe;fill-rule:evenodd;stroke:#fefefe;stroke-width:1px;filter:url(#filter3641)"
           d="m 328.60596,244.6525 8.59,2.78 -0.76,-11.87 -8.08,4.04 0.25,5.05 z"
           transform="matrix(0.1886872,0,0,0.21314736,424.01469,383.09075)" />
        <path
           inkscape:connector-curvature="0"
           id="path2408"
           sodipodi:nodetypes="ccccc"
           style="fill:#fefefe;fill-rule:evenodd;stroke:#fefefe;stroke-width:1px;filter:url(#filter3637)"
           d="m 357.39596,245.1525 8.59,-2.27 -0.51,-4.04 -7.57,-0.25 -0.51,6.56 z"
           transform="matrix(0.1886872,0,0,0.21314736,424.01469,383.09075)" />
      </g>
      <rect
         y="469.08878"
         x="330.54135"
         height="16.162441"
         width="36.36549"
         id="rect3093"
         style="fill:none;stroke:none" />
      <text
         sodipodi:linespacing="125%"
         id="text4970"
         y="466.27802"
         x="327.43314"
         style="font-style:normal;font-weight:normal;font-size:29.55895424px;line-height:125%;font-family:sans-serif;letter-spacing:0px;word-spacing:0px;fill:#aa7304;fill-opacity:1;stroke:none"
         xml:space="preserve"><tspan
           style="font-style:normal;font-variant:normal;font-weight:normal;font-stretch:normal;font-size:12.5px;font-family:'Berlin Sans FB';-inkscape-font-specification:'Berlin Sans FB';fill:#aa7304;fill-opacity:1"
           y="466.27802"
           x="327.43314"
           id="tspan4972"
           sodipodi:role="line">Bright ideas for a brilliant tomorrow</tspan></text>
    </g>
  </g>
</svg>
